<svg width="197" height="97" viewBox="0 0 197 97" fill="none" xmlns="http://www.w3.org/2000/svg">
<path d="M194.811 17.67C184.334 -0.242343 161.097 -1.35567 142.016 7.69511C132.457 12.2293 129.584 17.9133 131.72 27.2618C133.14 33.4764 142.177 29.9456 140.72 23.5683C138.819 15.2464 133.642 7.89024 125.619 4.1489C106.883 -4.58842 83.6885 15.488 74.8262 29.5857C71.305 35.187 72.9873 48.2798 80.7142 40.9957C86.1715 35.8513 79.8766 25.8898 74.9615 22.9959C52.6956 9.88637 34.8951 33.6113 24.6777 49.8651C21.2446 55.3265 14.8014 67.5375 14.4645 73.7855C14.1915 78.8496 0.317976 65.5079 8.10141 71.8668C12.6056 75.5467 21.0816 80.4621 27.2322 79.7995C30.199 79.48 14.9653 86.7485 12.7853 88.3797C9.12769 91.1167 0.84047 98.1514 2.49288 92.0036C3.86103 86.9134 5.58407 78.4031 4.46759 73.5159" stroke="#E6007F" stroke-width="4" stroke-linecap="round"/>
</svg>
