<svg width="194" height="104" viewBox="0 0 194 104" fill="none" xmlns="http://www.w3.org/2000/svg">
<path d="M2.36113 17.3972C13.5027 -0.127247 36.7724 -0.373268 55.507 9.39142C64.8925 14.2832 67.5521 20.0756 65.0681 29.346C63.4168 35.5087 54.5149 31.6399 56.2094 25.3158C58.4206 17.0634 63.8702 9.89921 72.0296 6.45671C91.0845 -1.58272 113.52 19.3631 121.852 33.7942C125.162 39.528 122.992 52.5603 115.54 44.9865C110.277 39.6374 116.941 29.9091 121.963 27.1982C144.709 14.9176 161.616 39.3113 171.222 55.9493C174.45 61.5399 180.434 73.9936 180.538 80.2553C180.621 85.3305 194.987 72.5043 186.97 78.5738C182.33 82.0862 173.674 86.686 167.55 85.7938C164.597 85.3634 179.553 93.2019 181.671 94.9148C185.225 97.7888 193.246 105.134 191.824 98.9236C190.646 93.7814 189.242 85.2052 190.54 80.3589" stroke="url(#paint0_linear_54_873)" stroke-width="4" stroke-linecap="round"/>
<defs>
<linearGradient id="paint0_linear_54_873" x1="209" y1="102" x2="-5.99999" y2="-15" gradientUnits="userSpaceOnUse">
<stop stop-color="#E6007F"/>
<stop offset="0.5625" stop-color="#FF9900"/>
<stop offset="1" stop-color="#FFD05A"/>
</linearGradient>
</defs>
</svg>
