<svg width="197" height="97" viewBox="0 0 197 97" fill="none" xmlns="http://www.w3.org/2000/svg">
<path d="M195 79.0517C184.521 96.9798 161.276 98.0941 142.19 89.0354C132.629 84.4972 129.755 78.8082 131.891 69.4515C133.311 63.2315 142.351 66.7654 140.894 73.1483C138.992 81.4775 133.814 88.8401 125.789 92.5847C107.047 101.33 83.846 81.2357 74.9811 67.1256C71.4589 61.5194 73.1417 48.4152 80.8708 55.7056C86.3296 60.8546 80.033 70.8248 75.1164 73.7212C52.8442 86.8422 35.0386 63.0965 24.8183 46.8285C21.3842 41.3623 14.9392 29.1406 14.6022 22.8872C14.3291 17.8186 0.45165 31.172 8.2373 24.8075C12.7427 21.1244 21.2212 16.2047 27.3736 16.8678C30.3412 17.1877 15.1032 9.91283 12.9226 8.28014C9.26388 5.54082 0.974293 -1.5001 2.62718 4.65308C3.99571 9.74772 5.71925 18.2655 4.60245 23.1569" stroke="#E6007F" stroke-width="4" stroke-linecap="round"/>
</svg>
