<svg width="201" height="86" viewBox="0 0 201 86" fill="none" xmlns="http://www.w3.org/2000/svg">
<path d="M2.07716 56.0252C16.4959 75.5059 45.129 97.6304 66.8677 73.0921C78.9047 59.505 81.6522 24.9612 60.36 17.5826C52.7473 14.9445 53.7132 23.2997 55.3087 27.6229C58.2061 35.4736 64.6943 41.2881 72.2665 44.5822C91.326 52.8737 103.283 33.9517 117.217 25.219C135.302 13.885 163.834 9.302 184.679 14.0491C202.694 18.1519 191.571 20.3116 180.674 26.9674C172.387 32.029 191.116 24.6103 193.733 23.0818C197.021 21.1609 200.655 21.8858 196.974 19.0566C190.738 14.2631 184.53 8.38267 179.011 2.73125" stroke="#E6007F" stroke-width="4" stroke-linecap="round"/>
</svg>
