<svg width="220" height="220" viewBox="0 0 220 220" fill="none" xmlns="http://www.w3.org/2000/svg">
<path d="M110 220C133.23 220 155.863 212.646 174.656 198.992C193.45 185.338 207.438 166.085 214.616 143.992C221.795 121.899 221.795 98.1009 214.616 76.0081C207.438 53.9154 193.45 34.6622 174.656 21.0081C155.863 7.35404 133.23 -5.82366e-06 110 -4.80825e-06C86.7703 -3.79285e-06 64.1369 7.35404 45.3436 21.0081C26.5504 34.6622 12.5621 53.9154 5.38377 76.0081C-1.79461 98.1009 -1.79459 121.899 5.38378 143.992L36.7686 133.794C31.7438 118.329 31.7438 101.671 36.7686 86.2057C41.7935 70.7408 51.5853 57.2636 64.7405 47.7057C77.8958 38.1478 93.7392 33 110 33C126.261 33 142.104 38.1478 155.259 47.7057C168.415 57.2635 178.206 70.7407 183.231 86.2057C188.256 101.671 188.256 118.329 183.231 133.794C178.206 149.259 168.415 162.736 155.259 172.294C142.104 181.852 126.261 187 110 187L110 220Z" fill="#A30A7B"/>
</svg>
