<svg width="295" height="14" viewBox="0 0 295 14" fill="none" xmlns="http://www.w3.org/2000/svg">
<path fill-rule="evenodd" clip-rule="evenodd" d="M13.7353 3.78978C7.05484 4.17668 3.075 4.5249 2.43538 4.91181C0.871869 5.76301 3.99889 6.1886 13.8774 6.22729C13.9485 6.22729 270.436 3.05464 270.507 3.05464C282.091 2.7838 283.015 2.43559 283.015 1.77785C283.015 0.926648 279.888 0.346288 273.207 0.0754521C264.395 -0.350147 63.1281 1.04273 13.7353 3.78978ZM274.842 5.72432C271.715 5.8017 68.1739 8.35529 63.057 8.58744C0.374381 11.1023 -4.45828 11.4892 2.29325 13.3464C5.56241 14.2363 11.7454 14.2363 38.5383 13.2303C103.14 10.8702 287.066 10.5994 293.533 9.32256C296.518 8.70351 296.944 5.29872 274.842 5.72432Z" fill="#E6007F"/>
</svg>
