<svg width="62" height="64" viewBox="0 0 62 64" fill="none" xmlns="http://www.w3.org/2000/svg">
<path fill-rule="evenodd" clip-rule="evenodd" d="M13.1595 0.745697C2.75997 3.98412 -2.21162 16.6642 0.935612 31.8075C1.93906 36.5968 5.90731 36.7337 10.7422 33.7233C15.8507 30.4846 21.8714 23.6885 26.2958 14.9766C31.0395 5.53493 23.6048 -2.53838 13.1595 0.745697ZM18.04 4.94196C23.1942 7.99795 21.8714 13.2434 13.2508 23.3236L8.23352 29.2077L8.09675 24.7833C7.68627 10.7803 12.293 1.52106 18.04 4.94196ZM42.7618 9.22952C35.692 12.5136 24.882 26.562 24.882 32.4917C24.882 36.3687 27.6643 36.2319 41.3477 31.6706C52.158 28.0673 57.3575 26.0146 59.6836 23.1411C67.392 13.6995 54.3472 3.84728 42.7618 9.22952ZM53.4349 13.517C55.8526 17.2116 49.9228 24.8289 42.853 27.155C37.0601 29.0708 33.0919 30.1197 33.5024 29.527C33.7305 29.2533 35.1446 27.383 36.6496 25.3763C43.765 15.9345 51.4738 10.5067 53.4349 13.517ZM26.4326 41.7963C16.4436 43.5297 12.8403 50.3715 24.8361 54.4766C26.9344 55.2064 31.45 57.3044 34.8709 59.129C44.8598 64.5567 49.8316 64.6479 54.0279 59.5396C57.2663 55.617 56.4452 49.3223 53.3437 44.6702C45.7265 33.2216 31.815 40.8387 26.4326 41.7963ZM49.5123 46.4944C52.1124 47.8173 52.0212 50.8276 49.2842 53.8835C45.5896 57.9886 42.4881 57.7606 33.6849 52.6979L27.2993 49.049C28.3025 48.8665 31.9062 48.2735 37.9268 46.8594C43.446 45.4909 47.3231 45.3996 49.5123 46.4944Z" fill="#E6007F"/>
</svg>
