<svg width="46" height="53" viewBox="0 0 46 53" fill="none" xmlns="http://www.w3.org/2000/svg">
<path fill-rule="evenodd" clip-rule="evenodd" d="M22.4995 1.50896C21.3195 2.9165 21.3576 8.43255 22.4995 12.3509C23.6795 16.3072 27.9807 18.5516 32.7387 17.7528C36.2406 17.1821 46.1374 12.1606 45.9852 11.0194C45.6045 8.47059 42.0645 8.73689 36.0123 11.7802C27.9807 15.7746 27.6762 15.5464 25.8872 4.17188C25.202 -0.164879 22.9943 0.938331 22.4995 1.50896ZM13.4022 8.96513C14.1635 19.0462 11.8797 22.2417 3.35327 22.9645C-0.148632 23.2688 -0.948092 24.0297 1.14544 25.0948C4.98992 27.073 13.3641 25.3991 15.8383 22.1656C17.6653 19.769 19.1498 6.94891 17.8937 4.24794C17.6272 3.67732 12.5267 -2.21914 13.4022 8.96513ZM39.0574 21.2145C29.313 26.5023 26.5343 31.5619 28.5517 40.3876C30.3026 47.9579 32.5485 47.8058 32.853 40.0833C33.1956 31.7521 33.6142 30.9533 40.5419 26.0459C44.8051 23.0406 45.7187 21.9374 44.6529 21.1005C43.7013 20.2635 40.6942 20.3015 39.0574 21.2145ZM20.9769 39.2083C19.9872 34.415 15.8762 32.1325 10.8137 33.5401C7.42599 34.4531 3.50549 36.8878 3.50549 38.0671C3.50549 39.4746 6.74095 39.7789 9.21512 38.6377C10.0145 38.2573 11.7653 37.6106 13.1357 37.116C13.6305 36.9258 14.1634 37.0019 14.6201 37.2682C15.0769 37.5345 15.3815 37.991 15.4576 38.5235C15.7621 40.3876 16.1808 43.2027 16.3711 45.5993C16.8279 51.3817 17.4749 52.4468 20.5201 52.4468C22.4613 52.3327 22.6517 47.2732 20.9769 39.2083Z" fill="#E6007F"/>
</svg>
