<svg width="75" height="95" viewBox="0 0 75 95" fill="none" xmlns="http://www.w3.org/2000/svg">
<path d="M22.152 20.6491C17.7796 21.4395 16.438 3.2595 20.6614 0.492957C22.2017 -0.544495 23.8414 0.0975405 24.5867 2.02424C27.9654 10.3239 26.7232 19.8092 22.152 20.6491Z" fill="#E6007F"/>
<path d="M40.7351 23.6629C38.3501 24.8979 29.5555 25.2438 29.1083 24.1075C28.1146 21.4892 35.1204 19.5625 41.2319 20.6988C42.9213 21.0446 42.6232 22.6749 40.7351 23.6629Z" fill="#E6007F"/>
<path d="M22.5498 45.1038C19.3202 45.1038 18.7239 30.8759 21.8542 28.5045C23.1461 27.5659 25.8292 27.6647 26.3757 28.7022C30.0029 35.3715 27.7173 45.1038 22.5498 45.1038Z" fill="#E6007F"/>
<path d="M23.4937 51.6743C24.9346 52.4154 25.2824 53.9469 25.7296 62.0983C26.1768 71.0401 18.5747 78.8951 17.1834 59.0847C16.7859 53.1564 19.6678 49.797 23.4937 51.6743Z" fill="#E6007F"/>
<path d="M6.9981 25.5403C2.22815 25.8861 0.587984 25.2438 1.58172 23.3665C2.67484 21.3409 16.5872 19.7106 17.2828 21.5385C18.0778 23.5642 14.3021 24.9968 6.9981 25.5403Z" fill="#E6007F"/>
<path d="M66.0261 48.809C70.8954 48.3149 73.1314 47.8209 74.4233 48.7596C76.8083 50.4886 71.442 52.9094 64.8336 53.1564C58.3742 53.354 59.4177 49.5006 66.0261 48.809Z" fill="#E6007F"/>
<path d="M33.1331 70.5459C36.5118 70.1507 42.0271 69.9036 42.9711 70.1507C47.0952 71.1387 41.6793 74.2017 34.9715 74.7451C26.4751 75.4367 24.736 71.5833 33.1331 70.5459Z" fill="#E6007F"/>
<path d="M26.8729 79.5865C30.6491 86.5522 28.4132 95.0001 22.7986 95.0001C20.5627 95.0001 17.5318 83.9339 19.0224 81.118C20.1155 79.0925 26.0282 77.9562 26.8729 79.5865Z" fill="#E6007F"/>
<path d="M54.4985 56.1697C56.7344 54.737 59.6162 54.6382 60.2125 56.0215C60.9578 57.8 61.6534 66.4454 61.1068 67.4829C60.1131 69.459 54.2004 70.6446 53.5544 69.0144C52.6104 66.4454 53.2563 56.9601 54.4985 56.1697Z" fill="#E6007F"/>
<path d="M1.23434 72.9172C3.669 70.7435 16.5876 69.6567 17.3329 71.534C18.1776 73.7571 14.8983 75.0415 7.24647 75.4367C-0.00783011 75.832 -1.39907 75.2391 1.23434 72.9172Z" fill="#E6007F"/>
<path d="M59.0698 29.6407C61.4051 30.036 62.1504 41.8926 60.0139 44.4615C58.2252 46.5858 52.6105 48.8089 52.7596 42.189C52.9583 32.7037 53.1571 28.7021 59.0698 29.6407Z" fill="#E6007F"/>
<path d="M39.6919 48.71C42.0768 47.7219 51.7161 47.7713 52.0639 48.8088C52.9086 50.9331 48.9337 52.5139 42.7228 52.5139C36.4622 52.5139 34.9716 50.6861 39.6919 48.71Z" fill="#E6007F"/>
</svg>
