<svg width="25" height="25" viewBox="0 0 25 25" fill="none" xmlns="http://www.w3.org/2000/svg">
<g clip-path="url(#clip0_54_1093)">
<path d="M12.5 0.78125C10.293 0.783013 8.13136 1.40797 6.26392 2.58417H18.719C16.8565 1.41105 14.7012 0.786223 12.5 0.78125Z" fill="#B22234"/>
<path d="M6.26398 2.58417C5.45952 3.09343 4.72012 3.69884 4.06213 4.38699H20.9518C20.2842 3.69685 19.5344 3.09137 18.7191 2.58417H6.26398Z" fill="white"/>
<path d="M4.06204 4.38699C3.53015 4.93997 3.05386 5.54384 2.64001 6.18991H22.3733C21.9596 5.54386 21.4835 4.93998 20.9517 4.38699H4.06204Z" fill="#B22234"/>
<path d="M2.64004 6.18991C2.27016 6.76197 1.95087 7.3652 1.68579 7.99274H23.3056C23.0476 7.36597 22.7357 6.76276 22.3734 6.18991H2.64004Z" fill="white"/>
<path d="M1.68581 7.99274C1.44586 8.57723 1.25358 9.18017 1.11084 9.79566H23.8883C23.7431 9.17994 23.5482 8.577 23.3056 7.99274H1.68581Z" fill="#B22234"/>
<path d="M1.1109 9.79565C0.969341 10.3883 0.874226 10.9911 0.826416 11.5986H24.1807C24.1303 10.9909 24.0325 10.3881 23.8884 9.79565H1.1109Z" fill="white"/>
<path d="M0.826359 11.5987C0.799753 11.8985 0.784706 12.1992 0.78125 12.5001C0.78239 12.801 0.795115 13.1017 0.819397 13.4016H24.1736C24.2002 13.1018 24.2153 12.8011 24.2188 12.5001C24.2176 12.1993 24.2049 11.8986 24.1806 11.5987H0.826359Z" fill="#B22234"/>
<path d="M0.819336 13.4013C0.869717 14.0089 0.967447 14.6117 1.11164 15.2042H23.8891C24.0307 14.6115 24.1258 14.0087 24.1736 13.4013H0.819336Z" fill="white"/>
<path d="M1.11169 15.2043C1.25694 15.8201 1.45181 16.423 1.69439 17.0073H23.3142C23.5541 16.4228 23.7464 15.8198 23.8892 15.2043H1.11169Z" fill="#B22234"/>
<path d="M1.69434 17.0073C1.95235 17.634 2.26426 18.2372 2.62655 18.8101H22.3599C22.7298 18.238 23.0491 17.6348 23.3141 17.0073H1.69434Z" fill="white"/>
<path d="M2.62659 18.8101C3.04031 19.4561 3.51648 20.06 4.04823 20.613H20.9379C21.4698 20.06 21.9461 19.4562 22.3599 18.8101H2.62659Z" fill="#B22234"/>
<path d="M4.04822 20.613C4.7158 21.3032 5.46566 21.9086 6.28096 22.4158H18.736C19.5405 21.9066 20.2799 21.3012 20.9379 20.613H4.04822Z" fill="white"/>
<path d="M6.28101 22.4158C8.14354 23.589 10.2988 24.2138 12.5 24.2188C14.707 24.217 16.8686 23.592 18.7361 22.4158H6.28101Z" fill="#B22234"/>
<path d="M12.5 0.78125C9.39199 0.78125 6.41128 2.0159 4.21359 4.21359C2.0159 6.41128 0.78125 9.39199 0.78125 12.5C0.782783 12.8097 0.79659 13.1192 0.822639 13.4277H13.4277V0.827694C13.1192 0.799958 12.8097 0.784464 12.5 0.78125Z" fill="#3C3B6E"/>
<path d="M8.306 1.57132C8.14986 1.62832 7.99495 1.68864 7.84137 1.75223L8.01256 1.88231L7.89678 2.25644L8.20348 2.02746L8.51915 2.2674L8.40061 1.88021L8.71627 1.64456H8.32841L8.306 1.57132ZM10.2938 1.25122L10.172 1.64453H9.78553L10.0984 1.88234L9.9826 2.25641L10.2893 2.02745L10.605 2.26739L10.4864 1.88026L10.8021 1.64453H10.4143L10.2938 1.25122ZM12.3796 1.25122L12.2579 1.64453H11.8713L12.1842 1.88234L12.0684 2.25641L12.3751 2.02745L12.6908 2.26739L12.5722 1.88026L12.8879 1.64453H12.5001L12.3796 1.25122ZM5.29086 3.27839C5.23576 3.31949 5.18102 3.36107 5.12664 3.40314L5.39043 3.60369L5.29086 3.27839ZM7.16508 2.5875L7.04332 2.98081H6.65681L6.96967 3.21862L6.85387 3.59269L7.16055 3.36373L7.47625 3.60367L7.3577 3.21654L7.67335 2.98081H7.28553L7.16508 2.5875ZM9.2509 2.5875L9.12914 2.98081H8.74262L9.0555 3.21862L8.93969 3.59269L9.24638 3.36373L9.56207 3.60367L9.44352 3.21654L9.75917 2.98081H9.37135L9.2509 2.5875ZM11.3367 2.5875L11.215 2.98081H10.8284L11.1413 3.21862L11.0255 3.59269L11.3322 3.36373L11.6479 3.60367L11.5293 3.21654L11.845 2.98081H11.4572L11.3367 2.5875ZM4.14712 4.28557C4.03153 4.40793 3.91859 4.53276 3.80838 4.65998L3.72512 4.92892L4.03182 4.69994L4.34749 4.93989L4.22895 4.55279L4.54461 4.31704H4.15675L4.14712 4.28557ZM6.12217 3.92373L6.00041 4.31704H5.6139L5.92676 4.55484L5.81096 4.92892L6.11764 4.69996L6.43334 4.93989L6.31479 4.55277L6.63045 4.31704H6.24261L6.12217 3.92373ZM8.20799 3.92373L8.08623 4.31704H7.69972L8.01258 4.55484L7.89678 4.92892L8.20346 4.69996L8.51915 4.93989L8.40061 4.55277L8.71626 4.31704H8.32843L8.20799 3.92373ZM10.2938 3.92373L10.172 4.31704H9.78553L10.0984 4.55484L9.9826 4.92892L10.2893 4.69996L10.605 4.93989L10.4864 4.55277L10.8021 4.31704H10.4143L10.2938 3.92373ZM12.3796 3.92373L12.2579 4.31704H11.8713L12.1842 4.55484L12.0684 4.92892L12.3751 4.69996L12.6908 4.93989L12.5722 4.55277L12.8879 4.31704H12.5001L12.3796 3.92373ZM3.08196 5.549C2.97399 5.69289 2.86934 5.83926 2.76811 5.98797L2.68228 6.26521L2.98888 6.03623L3.30465 6.27617L3.1861 5.88908L3.50168 5.65333H3.11391L3.08196 5.549ZM5.07926 5.26001L4.9575 5.65332H4.57099L4.88385 5.89112L4.76805 6.2652L5.07474 6.03624L5.39043 6.27618L5.27188 5.88905L5.58754 5.65332H5.19971L5.07926 5.26001ZM7.16508 5.26001L7.04332 5.65332H6.65681L6.96967 5.89112L6.85387 6.2652L7.16055 6.03624L7.47625 6.27618L7.3577 5.88905L7.67335 5.65332H7.28553L7.16508 5.26001ZM9.2509 5.26001L9.12914 5.65332H8.74262L9.0555 5.89112L8.93969 6.2652L9.24638 6.03624L9.56207 6.27618L9.44352 5.88905L9.75917 5.65332H9.37135L9.2509 5.26001ZM11.3367 5.26001L11.215 5.65332H10.8284L11.1413 5.89112L11.0255 6.2652L11.3322 6.03624L11.6479 6.27618L11.5293 5.88905L11.845 5.65332H11.4572L11.3367 5.26001ZM2.16796 6.98962C2.09792 7.12088 2.03039 7.25347 1.9654 7.3873L2.26171 7.61246L2.14317 7.22537L2.45883 6.98962H2.16796ZM4.03635 6.59629L3.91459 6.9896H3.52808L3.84095 7.2274L3.72515 7.60148L4.03183 7.37252L4.34752 7.61246L4.22898 7.22533L4.54463 6.9896H4.1568L4.03635 6.59629ZM6.12217 6.59629L6.00041 6.9896H5.6139L5.92676 7.2274L5.81096 7.60148L6.11764 7.37252L6.43334 7.61246L6.31479 7.22533L6.63045 6.9896H6.24261L6.12217 6.59629ZM8.20799 6.59629L8.08623 6.9896H7.69972L8.01258 7.2274L7.89678 7.60148L8.20346 7.37252L8.51915 7.61246L8.40061 7.22533L8.71626 6.9896H8.32843L8.20799 6.59629ZM10.2938 6.59629L10.172 6.9896H9.78553L10.0984 7.2274L9.9826 7.60148L10.2893 7.37252L10.605 7.61246L10.4864 7.22533L10.8021 6.9896H10.4143L10.2938 6.59629ZM12.3796 6.59629L12.2579 6.9896H11.8713L12.1842 7.2274L12.0684 7.60148L12.3751 7.37252L12.6908 7.61246L12.5722 7.22533L12.8879 6.9896H12.5001L12.3796 6.59629ZM2.99345 7.93252L2.87169 8.32582H2.48517L2.79804 8.56363L2.68224 8.93771L2.98892 8.70874L3.30461 8.94868L3.18607 8.56155L3.50172 8.32582H3.11389L2.99345 7.93252ZM5.07926 7.93252L4.9575 8.32582H4.57099L4.88385 8.56363L4.76805 8.93771L5.07474 8.70874L5.39043 8.94868L5.27188 8.56155L5.58754 8.32582H5.19971L5.07926 7.93252ZM7.16508 7.93252L7.04332 8.32582H6.65681L6.96967 8.56363L6.85387 8.93771L7.16055 8.70874L7.47625 8.94868L7.3577 8.56155L7.67335 8.32582H7.28553L7.16508 7.93252ZM9.2509 7.93252L9.12914 8.32582H8.74262L9.0555 8.56363L8.93969 8.93771L9.24638 8.70874L9.56207 8.94868L9.44352 8.56155L9.75917 8.32582H9.37135L9.2509 7.93252ZM11.3367 7.93252L11.215 8.32582H10.8284L11.1413 8.56363L11.0255 8.93771L11.3322 8.70874L11.6479 8.94868L11.5293 8.56155L11.845 8.32582H11.4572L11.3367 7.93252ZM1.95054 9.2688L1.82878 9.6621H1.44226L1.75513 9.89991L1.63933 10.274L1.94601 10.045L2.2617 10.285L2.14316 9.89783L2.45881 9.6621H2.07098L1.95054 9.2688ZM4.03635 9.2688L3.91459 9.6621H3.52808L3.84095 9.89991L3.72515 10.274L4.03183 10.045L4.34752 10.285L4.22898 9.89783L4.54463 9.6621H4.1568L4.03635 9.2688ZM6.12217 9.2688L6.00041 9.6621H5.6139L5.92676 9.89991L5.81096 10.274L6.11764 10.045L6.43334 10.285L6.31479 9.89783L6.63045 9.6621H6.24261L6.12217 9.2688ZM8.20799 9.2688L8.08623 9.6621H7.69972L8.01258 9.89991L7.89678 10.274L8.20346 10.045L8.51915 10.285L8.40061 9.89783L8.71626 9.6621H8.32843L8.20799 9.2688ZM10.2938 9.2688L10.172 9.6621H9.78553L10.0984 9.89991L9.9826 10.274L10.2893 10.045L10.605 10.285L10.4864 9.89783L10.8021 9.6621H10.4143L10.2938 9.2688ZM12.3796 9.2688L12.2579 9.6621H11.8713L12.1842 9.89991L12.0684 10.274L12.3751 10.045L12.6908 10.285L12.5722 9.89783L12.8879 9.6621H12.5001L12.3796 9.2688ZM2.99345 10.6051L2.87169 10.9984H2.48517L2.79804 11.2362L2.68224 11.6103L2.98892 11.3813L3.30461 11.6212L3.18607 11.2341L3.50172 10.9984H3.11389L2.99345 10.6051ZM5.07926 10.6051L4.9575 10.9984H4.57099L4.88385 11.2362L4.76805 11.6103L5.07474 11.3813L5.39043 11.6212L5.27188 11.2341L5.58754 10.9984H5.19971L5.07926 10.6051ZM7.16508 10.6051L7.04332 10.9984H6.65681L6.96967 11.2362L6.85387 11.6103L7.16055 11.3813L7.47625 11.6212L7.3577 11.2341L7.67335 10.9984H7.28553L7.16508 10.6051ZM9.2509 10.6051L9.12914 10.9984H8.74262L9.0555 11.2362L8.93969 11.6103L9.24638 11.3813L9.56207 11.6212L9.44352 11.2341L9.75917 10.9984H9.37135L9.2509 10.6051ZM11.3367 10.6051L11.215 10.9984H10.8284L11.1413 11.2362L11.0255 11.6103L11.3322 11.3813L11.6479 11.6212L11.5293 11.2341L11.845 10.9984H11.4572L11.3367 10.6051ZM1.95054 11.9413L1.82878 12.3346H1.44226L1.75513 12.5724L1.63933 12.9465L1.94601 12.7175L2.2617 12.9575L2.14316 12.5703L2.45881 12.3346H2.07098L1.95054 11.9413ZM4.03635 11.9413L3.91459 12.3346H3.52808L3.84095 12.5724L3.72515 12.9465L4.03183 12.7175L4.34752 12.9575L4.22898 12.5703L4.54463 12.3346H4.1568L4.03635 11.9413ZM6.12217 11.9413L6.00041 12.3346H5.6139L5.92676 12.5724L5.81096 12.9465L6.11764 12.7175L6.43334 12.9575L6.31479 12.5703L6.63045 12.3346H6.24261L6.12217 11.9413ZM8.20799 11.9413L8.08623 12.3346H7.69972L8.01258 12.5724L7.89678 12.9465L8.20346 12.7175L8.51915 12.9575L8.40061 12.5703L8.71626 12.3346H8.32843L8.20799 11.9413ZM10.2938 11.9413L10.172 12.3346H9.78553L10.0984 12.5724L9.9826 12.9465L10.2893 12.7175L10.605 12.9575L10.4864 12.5703L10.8021 12.3346H10.4143L10.2938 11.9413ZM12.3796 11.9413L12.2579 12.3346H11.8713L12.1842 12.5724L12.0684 12.9465L12.3751 12.7175L12.6908 12.9575L12.5722 12.5703L12.8879 12.3346H12.5001L12.3796 11.9413Z" fill="white"/>
</g>
<defs>
<clipPath id="clip0_54_1093">
<rect width="25" height="25" fill="white"/>
</clipPath>
</defs>
</svg>
